<svg xmlns="http://www.w3.org/2000/svg" xml:space="preserve" filter="invert()"
    style="fill-rule:evenodd;clip-rule:evenodd;stroke-linejoin:round;stroke-miterlimit:2" viewBox="0 0 2048 1024">
    <path
        d="M1191.03 327.748v385.175h80.98c28.98 0 55.75-4.945 80.32-14.822 24.59-9.878 45.66-23.373 63.22-40.484 17.55-17.125 31.27-37.424 41.15-60.91 9.88-23.474 14.81-48.819 14.81-76.049 0-27.647-4.72-53.22-14.15-76.706-9.44-23.461-22.83-43.773-40.17-60.897-17.34-17.112-38.51-30.607-63.53-40.497-25.03-9.865-52.9-14.81-83.62-14.81zm-51.36-47.403H1274c37.29 0 71.32 6.147 102.05 18.428 30.72 12.306 57.05 29.202 79.01 50.703 21.94 21.513 38.95 46.858 51.02 76.049 12.06 29.202 18.11 60.897 18.11 95.133 0 34.237-6.26 66.07-18.77 95.475s-29.85 54.763-52.01 76.049c-22.17 21.298-48.4 38.081-78.69 50.374-30.28 12.281-63.2 18.427-98.75 18.427h-136.3zm645.91 273.894-135.63 206.747H1592l163.95-246.902-152.75-233.736h57.94l125.75 190.28 125.1-190.28h57.94l-153.4 230.435 163.28 250.203h-57.94zm515.53 164.609c27.66 0 53.33-5.274 77.03-15.81 23.71-10.535 44.22-24.789 61.56-42.786s30.95-38.954 40.83-62.882c9.87-23.917 14.81-49.49 14.81-76.707 0-27.204-4.94-52.777-14.81-76.706-9.88-23.916-23.49-44.873-40.83-62.883-17.34-17.984-37.85-32.251-61.56-42.786-23.7-10.535-49.37-15.809-77.03-15.809s-53.33 5.274-77.03 15.809c-23.71 10.535-44.23 24.802-61.56 42.786-17.35 18.01-30.95 38.967-40.82 62.883-9.88 23.929-14.81 49.502-14.81 76.706 0 27.217 4.93 52.79 14.81 76.707 9.87 23.928 23.47 44.885 40.82 62.882 17.33 17.997 37.85 32.251 61.56 42.786 23.7 10.536 49.37 15.81 77.03 15.81m0 48.717c-34.24 0-66.28-6.488-96.13-19.426s-55.95-30.607-78.34-53.005c-22.39-22.386-40.07-48.49-53-78.338-12.96-29.848-19.43-61.896-19.43-96.133s6.47-66.272 19.43-96.132c12.93-29.836 30.61-55.952 53-78.338s48.49-40.055 78.34-53.005 61.89-19.427 96.13-19.427 66.27 6.476 96.13 19.427c29.84 12.95 55.96 30.619 78.34 53.005 22.39 22.386 40.06 48.502 53.01 78.338 12.95 29.86 19.42 61.896 19.42 96.132s-6.47 66.285-19.42 96.133-30.62 55.952-53.01 78.338c-22.38 22.398-48.5 40.067-78.34 53.005-29.86 12.938-61.89 19.426-96.13 19.426m501.05 0c-39.07 0-72.2-7.791-99.42-23.385-27.22-15.569-50.69-37.196-70.45-64.843l43.46-32.921c16.24 25.017 34.45 43.684 54.65 55.965 20.17 12.293 44.1 18.439 71.76 18.439 14.92 0 28.65-2.301 41.16-6.918 12.5-4.603 23.25-10.864 32.26-18.768 8.99-7.892 16.01-17.441 21.07-28.634 5.03-11.193 7.56-23.372 7.56-36.538 0-14.924-3.29-27.432-9.86-37.538-6.59-10.092-15.38-18.756-26.35-26.003s-23.48-13.494-37.52-18.768a2475 2475 0 0 0-43.46-15.797 715 715 0 0 1-49.06-18.769q-24.03-10.187-42.78-25.345c-12.52-10.093-22.72-22.272-30.62-36.538-7.91-14.266-11.85-31.935-11.85-53.005 0-17.555 3.72-33.908 11.19-49.047 7.46-15.151 17.77-28.317 30.95-39.51 13.16-11.193 28.73-19.97 46.73-26.332s37.54-9.549 58.61-9.549c34.23 0 63.21 6.362 86.91 19.098s44.33 30.505 61.88 53.334l-40.82 30.278c-24.59-38.183-60.8-57.28-108.63-57.28-13.61 0-26.12 1.973-37.52 5.931-11.44 3.946-21.4 9.536-29.97 16.783-8.56 7.247-15.25 15.696-20.08 25.346-4.83 9.662-7.25 19.982-7.25 30.948 0 14.051 3.19 25.788 9.55 35.223 6.36 9.447 14.82 17.681 25.36 24.687 10.53 7.032 22.71 13.065 36.54 18.111a4333 4333 0 0 0 43.12 15.481 682 682 0 0 1 49.38 19.085c16.24 7.032 30.83 15.695 43.79 26.003 12.93 10.32 23.47 22.942 31.6 37.866 8.11 14.924 12.18 33.364 12.18 55.307 0 17.997-3.62 35.223-10.86 51.69-7.25 16.454-17.68 31.049-31.28 43.772q-20.415 19.104-48.72 30.619c-18.88 7.677-39.95 11.522-63.21 11.522M893.472 909.428l-338.469-211.54 92.313-126.929zM398.96 570.959l92.313 126.929-338.469 211.54zM152.804 157.226l338.469 211.54-92.313 126.929zm392.473 273.423 74.67 102.684-74.67 102.672zm-44.266 205.356-74.682-102.672 74.682-102.684zm146.305-140.31-92.313-126.929 338.469-211.54zm349.03-404.653-29.633-31.783L523.144 336.49 79.563 59.259 49.93 91.042l321.661 442.291L49.93 975.612l29.633 31.798 443.581-277.246 443.569 277.246 29.633-31.798-321.661-442.279z"
        style="fill-rule:nonzero" transform="matrix(.64 0 0 .64 62.029 170.667)" />
</svg>