<?xml version="1.0" encoding="UTF-8"?><svg id="Layer_1" xmlns="http://www.w3.org/2000/svg" viewBox="0 0 1335.6 346"><defs><style>.cls-1{fill:none;}.cls-2,.cls-3{fill:#fff;}.cls-4{fill:#45bfdb;}.cls-5{fill:#130d0c;}.cls-5,.cls-3{fill-rule:evenodd;}</style></defs><g id="Layer_2-2"><g id="Layer_2-3"><g id="Layer_2-4"><g><path class="cls-3" d="M122.88,67.5h91.14c20.84,0,28.4,2.17,36.01,6.24,7.62,4.07,13.6,10.05,17.67,17.67,4.07,7.62,6.24,15.17,6.24,36.01v91.14c0,20.84-2.17,28.4-6.24,36.01-4.07,7.62-10.05,13.6-17.67,17.67-7.62,4.07-15.17,6.24-36.01,6.24H122.88c-20.84,0-28.4-2.17-36.01-6.24-7.62-4.07-13.6-10.05-17.67-17.67-4.07-7.62-6.24-15.17-6.24-36.01V127.43c0-20.84,2.17-28.4,6.24-36.01,4.07-7.62,10.05-13.6,17.67-17.67,7.62-4.07,15.17-6.24,36.01-6.24Z"/><rect class="cls-1" width="1335.6" height="346"/><g><path class="cls-2" d="M971.03,237.58c-29.56,0-51.02-21.54-51.02-51.22s21.46-51.22,51.02-51.22,50.82,21.54,50.82,51.22-21.37,51.22-50.82,51.22Zm0-88.45c-20.15,0-34.23,15.31-34.23,37.23s14.07,37.23,34.23,37.23,34.02-15.31,34.02-37.23-13.99-37.23-34.02-37.23Z"/><path class="cls-2" d="M1234.57,237.58c-21.87,0-36.99-11.81-39.48-30.83l-.08-.74c-.03-.26,.02-.39,.11-.5,.1-.11,.22-.16,.37-.16h14.79c.25,0,.45,.17,.49,.42,.05,.33,.1,.63,.14,.82,2.16,10.8,10.78,17,23.66,17,11.83,0,20.41-6.23,20.41-14.81,0-13.04-12.05-15.02-24.8-17.11-15.35-2.52-32.75-5.37-32.75-28.54,0-16.75,13.95-28,34.72-28s34.91,10.1,37.85,26.36c.06,.34,.17,1.22,.3,2.42,.02,.14-.03,.28-.12,.39s-.22,.16-.37,.16h-14.85c-.23,0-.44-.16-.49-.39-.28-1.39-.36-1.63-.38-1.71-3.03-10.13-13.72-13.73-21.94-13.73-11.42,0-18.8,5.45-18.8,13.89,0,11.84,11.44,13.49,23.55,15.25,16.13,2.34,34.39,4.99,34.39,30.61,0,17.74-14.42,29.2-36.73,29.2h0Z"/><path class="cls-2" d="M1072.48,236.04c-9.85,0-17.95-2.97-23.42-8.59-5.76-5.92-8.53-14.46-8.23-25.37v-44.24l-1.21-.08c-5.56-.33-11.05-.99-16.32-1.95l-.21-.31,2.77-14.15,.28-.21c4.32,.78,8.79,1.34,13.29,1.65l1.38,.09,.02-32.86c0-.14,.12-.26,.26-.26h15.85c.14,0,.26,.12,.26,.26v32.71l1.4-.11c8.6-.73,16.51-2.35,24.9-5.1l.32,.16,4.7,13.63-.16,.34c-10.02,3.3-19.54,5.2-29.96,5.98l-1.2,.09v44.28c0,12.04,6.75,18.94,18.51,18.94h10.34c.14,0,.26,.12,.26,.26v14.58c0,.14-.12,.26-.26,.26h-13.57Z"/><path class="cls-2" d="M889.37,236.04c-.14,0-.26-.12-.26-.26v-57.18c0-16.37-9.72-27.37-24.18-27.37-15.98,0-27.58,13.02-27.58,30.97v53.58c0,.14-.12,.26-.26,.26h-17.57c-.14,0-.26-.12-.26-.26v-98.9c0-.14,.12-.26,.26-.26h17.57c.14,0,.26,.12,.26,.26v19.1l1.89-3.9c5.53-10.77,17.04-16.94,31.07-16.94,22.06,0,36.88,15.94,36.88,39.67v60.97c0,.14-.12,.26-.26,.26h-17.56Z"/><path class="cls-2" d="M748.08,236.7c-28.36,0-46.68-19.8-46.68-50.45s18.24-50.45,46.48-50.45c12.72,0,25.34,6.49,30.75,12.6l2.26,2.54v-55.28c0-.14,.12-.26,.26-.26h16.13c.14,0,.26,.12,.26,.26V235.79c0,.14-.12,.26-.26,.26h-16.13c-.14,0-.26-.12-.26-.26v-14.3l-2.35,3.36c-5.2,7.43-16.59,11.86-30.46,11.86h0Zm2.37-86.8c-19.3,0-32.27,14.67-32.27,36.49s12.97,36.5,32.27,36.5,32.47-14.67,32.47-36.5-13.05-36.49-32.47-36.49h0Z"/><path class="cls-2" d="M402.66,237.58c-16.04,0-30.91-5.46-41.87-15.38-12.66-11.45-19.34-28.23-19.34-48.53s6.77-37.08,19.57-48.53c11.1-9.92,26.14-15.38,42.37-15.38,24.55,0,42.88,13.69,50.3,37.56,.06,.18,.03,.37-.07,.53s-.26,.27-.45,.3c0,0-14.63,2.37-14.64,2.37-.34,0-.57-.15-.67-.39-7.69-17.61-18.32-25.46-34.48-25.46-26.88,0-44.93,19.69-44.93,49.01s17.98,49.55,44.75,49.55c21.48,0,37.09-13.19,37.11-31.35,0-1.08,0-1.52-.13-1.86v-.43l-.03-.68-1.21,.14c-3.58,.41-6.82,.61-9.88,.61-6.58,0-11.99-.93-18.57-2.42-.34-.08-.57-.42-.49-.77l2.64-13.3c.06-.28,.33-.5,.63-.5,6.26,1.4,12.45,2.1,18.53,2.1,9.2,0,18.4-1.54,28.1-4.69h.11c.41,0,.62,.17,.71,.41l4.04,12.86c.06,.18,.04,.37-.04,.52-.09,.16-.24,.27-.41,.31-2.07,.51-4.24,.98-6.17,1.4l-2.89,.63,1.3,49.2c0,.18-.06,.34-.18,.47s-.29,.2-.46,.2h-13.87c-.36,0-.65-.29-.65-.65v-16.4l-2.07,2.76c-7.63,10.21-20.65,15.83-36.66,15.83v-.04Z"/><path class="cls-2" d="M1139.24,237.58c-15.68-.43-28.03-5.57-36.72-15.27-10.43-11.65-13.17-27.56-12.26-38.56,3.19-38.39,31.44-48.64,47.64-48.64,18.48,0,31.89,8.4,39.87,24.96,6.12,12.7,6.55,25.4,6.55,25.52,0,.2-.14,.39-.36,.47-18.59,6.63-35.13,9.71-52.06,9.71-7.02,0-13.93-1.2-22.93-2.88h-.12c-.63,0-1,.19-1.27,.5-.28,.33-.4,.76-.33,1.18,2.87,18.17,18.62,29.03,32.19,29.03,15.61-.14,24.92-6.03,28.68-18,.04-.14,.15-.23,.26-.23h16.65c.33,0,.25,.31,.25,.31-4.25,19.4-21.77,31.93-44.64,31.93-.47,0-.94,0-1.41-.02h.01Zm-1.17-88.96c-1.08,0-2.21,.05-3.33,.16-7.76,.73-14.6,4.51-19.8,10.94-5.57,6.9-7.28,14.2-7.67,16.28-.09,.5,0,.96,.25,1.35,.23,.36,.62,.63,1.08,.75,8.06,2.12,16.55,3.2,25.23,3.2,10.21,0,20.73-1.45,32.15-4.43,.45-.12,.84-.39,1.08-.78,.3-.48,.27-.97,.26-1.14-.45-7.03-8.21-26.33-29.25-26.33h0Z"/><path class="cls-2" d="M639.5,237.67c-29.56,0-51.02-21.54-51.02-51.22s21.46-51.22,51.02-51.22,50.82,21.54,50.82,51.22-21.37,51.22-50.82,51.22Zm0-88.46c-20.15,0-34.23,15.31-34.23,37.23s14.07,37.14,34.23,37.14,34.02-15.27,34.02-37.14-13.99-37.23-34.02-37.23Z"/><path class="cls-2" d="M526.25,237.67c-29.56,0-51.02-21.54-51.02-51.22s21.46-51.22,51.02-51.22,50.82,21.54,50.82,51.22-21.37,51.22-50.82,51.22Zm0-88.46c-20.15,0-34.23,15.31-34.23,37.23s14.07,37.14,34.23,37.14,34.02-15.27,34.02-37.14-13.99-37.23-34.02-37.23Z"/></g><g><g><path class="cls-4" d="M192.04,119.43h0s-81.95,0-81.95,0h0c-4.73,0-5.97,1.24-5.97,5.97s1.24,5.97,5.97,5.97h0s81.95,0,81.95,0h0c4.73,0,5.97-1.24,5.97-5.97s-1.24-5.97-5.97-5.97Z"/><path class="cls-4" d="M185.46,223.06h0c-2.06,1.89-13.04,11.19-27,8.64-8.91-1.63-14.48-7.29-16.31-9.16-8.93-9.1-9.83-20.48-9.79-24.96,.02-2.67-1.74-5.04-4.31-5.78-2.57-.74-5.32,.32-6.73,2.59-2.23,3.6-5.06,6.64-8.41,9.06-1.84,1.33-3.84,2.46-5.95,3.36h0c-4.35,1.87-5,3.49-3.13,7.84,1.87,4.35,3.49,5,7.84,3.13h0c2.91-1.25,5.67-2.81,8.22-4.65,.83-.6,1.65-1.23,2.43-1.89,1.76,6.21,5.09,13.32,11.31,19.66,2.49,2.53,10.05,10.23,22.69,12.54,2.39,.44,4.71,.63,6.94,.63,16.04,0,27.82-9.97,30.27-12.22h0c3.49-3.2,3.56-4.95,.36-8.44-3.2-3.49-4.95-3.56-8.44-.36Z"/><path class="cls-4" d="M176.97,160.82h0s0,0,0,0H110.09c-4.73,0-5.97,1.24-5.97,5.97s1.24,5.97,5.97,5.97h0s50.23,0,50.23,0h16.65c4.73,0,5.97-1.24,5.97-5.97s-1.24-5.97-5.97-5.97Z"/></g><path class="cls-5" d="M246.86,121.77c2.65-7.27-1.1-15.31-8.37-17.95-7.27-2.65-15.31,1.1-17.96,8.37l-24.12,66.27c-.85,2.34-1.25,4.83-1.18,7.32l.71,23.22c.12,3.89,4.92,5.63,7.51,2.73l15.47-17.33c1.66-1.86,2.95-4.02,3.8-6.36l24.12-66.27Z"/></g></g></g></g></g></svg>