<?xml version="1.0" encoding="utf-8"?>
<!-- Generator: Adobe Illustrator 27.5.0, SVG Export Plug-In . SVG Version: 6.00 Build 0)  -->
<svg version="1.1" xmlns="http://www.w3.org/2000/svg" xmlns:xlink="http://www.w3.org/1999/xlink" x="0px" y="0px"
	 viewBox="0 0 1335.6 346" style="enable-background:new 0 0 1335.6 346;" xml:space="preserve">
<style type="text/css">
	.st0{display:none;}
	.st1{display:inline;}
	.st2{fill-rule:evenodd;clip-rule:evenodd;fill:#FFFFFF;}
	.st3{fill:#45BFDB;}
	.st4{fill-rule:evenodd;clip-rule:evenodd;fill:#130D0C;}
	.st5{fill:#130D0C;}
</style>
<g id="Background" class="st0">
	<rect x="0" y="0" class="st1" width="1335.6" height="346"/>
</g>
<g id="Layer_1">
	<g id="Layer_2-2_00000183944124929363080720000015026139744952686756_">
		<g id="Layer_2-3_00000123417971178147556650000015061782316411633562_">
			<g id="Layer_2-4_00000013898881610797179540000010465390603949850270_">
				<g>
					<path class="st2" d="M122.9,67.5H214c20.8,0,28.4,2.2,36,6.2c7.6,4.1,13.6,10.1,17.7,17.7c4.1,7.6,6.2,15.2,6.2,36v91.1
						c0,20.8-2.2,28.4-6.2,36c-4.1,7.6-10.1,13.6-17.7,17.7c-7.6,4.1-15.2,6.2-36,6.2h-91.1c-20.8,0-28.4-2.2-36-6.2
						c-7.6-4.1-13.6-10.1-17.7-17.7c-4.1-7.6-6.2-15.2-6.2-36v-91.1c0-20.8,2.2-28.4,6.2-36c4.1-7.6,10.1-13.6,17.7-17.7
						C94.5,69.7,102,67.5,122.9,67.5z"/>
					<g>
						<g>
							<path class="st3" d="M192,119.4L192,119.4l-81.9,0v0c-4.7,0-6,1.2-6,6c0,4.7,1.2,6,6,6v0H192v0c4.7,0,6-1.2,6-6
								C198,120.7,196.8,119.4,192,119.4z"/>
							<path class="st3" d="M185.5,223.1L185.5,223.1c-2.1,1.9-13,11.2-27,8.6c-8.9-1.6-14.5-7.3-16.3-9.2c-8.9-9.1-9.8-20.5-9.8-25
								c0-2.7-1.7-5-4.3-5.8c-2.6-0.7-5.3,0.3-6.7,2.6c-2.2,3.6-5.1,6.6-8.4,9.1c-1.8,1.3-3.8,2.5-6,3.4l0,0c-4.4,1.9-5,3.5-3.1,7.8
								c1.9,4.4,3.5,5,7.8,3.1l0,0c2.9-1.2,5.7-2.8,8.2-4.6c0.8-0.6,1.6-1.2,2.4-1.9c1.8,6.2,5.1,13.3,11.3,19.7
								c2.5,2.5,10,10.2,22.7,12.5c2.4,0.4,4.7,0.6,6.9,0.6c16,0,27.8-10,30.3-12.2v0c3.5-3.2,3.6-4.9,0.4-8.4
								S188.9,219.9,185.5,223.1z"/>
							<path class="st3" d="M177,160.8L177,160.8L177,160.8l-16.6,0h-50.2v0c-4.7,0-6,1.2-6,6c0,4.7,1.2,6,6,6v0h50.2H177h0v0
								c4.7,0,6-1.2,6-6C182.9,162.1,181.7,160.8,177,160.8z"/>
						</g>
						<path class="st4" d="M246.9,121.8c2.6-7.3-1.1-15.3-8.4-18c-7.3-2.6-15.3,1.1-18,8.4l-24.1,66.3c-0.9,2.3-1.3,4.8-1.2,7.3
							L196,209c0.1,3.9,4.9,5.6,7.5,2.7l15.5-17.3c1.7-1.9,3-4,3.8-6.4L246.9,121.8z"/>
					</g>
				</g>
			</g>
		</g>
	</g>
	<g>
		<path class="st5" d="M971,238.7c-30.2,0-52.2-22-52.2-52.4S940.8,134,971,134s52,22,52,52.4S1001.1,238.7,971,238.7 M971,150.3
			c-19.5,0-33.1,14.8-33.1,36.1s13.6,36.1,33.1,36.1s32.9-14.8,32.9-36.1S990.4,150.3,971,150.3"/>
		<path class="st5" d="M1234.6,238.7c-22.7,0-38.1-12.2-40.6-31.8c0-0.1-0.1-0.5-0.1-0.9c-0.1-1,0.7-1.8,1.6-1.8h14.8
			c0.8,0,1.5,0.6,1.6,1.4c0.1,0.3,0.1,0.6,0.1,0.8c2,10.2,10.3,16.1,22.5,16.1c11.2,0,19.3-5.6,19.3-13.7c0-12.1-11.6-14-23.8-16
			c-15.8-2.6-33.7-5.5-33.7-29.7c0-17.4,14.4-29.1,35.9-29.1s35.9,10.6,39,27.3c0.1,0.4,0.2,1.5,0.3,2.5c0.1,1-0.7,1.8-1.6,1.8H1255
			c-0.8,0-1.4-0.6-1.6-1.3c-0.1-0.7-0.3-1.4-0.4-1.6c-2.8-9.2-12.4-12.9-20.8-12.9c-10.6,0-17.7,4.8-17.7,12.7
			c0,10.8,11,12.4,22.6,14.1c16.6,2.4,35.4,5.1,35.4,31.7C1272.4,226.8,1257.6,238.7,1234.6,238.7"/>
		<path class="st5" d="M1072.5,237.2c-10.2,0-18.6-3.1-24.2-8.9c-6-6.1-8.9-15-8.6-26.2v-43.1h-0.1c-5.6-0.3-11.1-1-16.5-2
			c-0.4-0.1-0.7-0.3-0.9-0.6c-0.2-0.3-0.3-0.7-0.2-1.1l2.8-14.1c0.1-0.7,0.7-1.1,1.4-1.1c0.1,0,0.2,0,0.2,0
			c4.3,0.8,8.7,1.3,13.1,1.6h0.2v-2.4l0-29.2c0-0.8,0.6-1.4,1.4-1.4h15.8c0.8,0,1.4,0.6,1.4,1.4v31.5h0.2c8.5-0.7,16.3-2.3,24.6-5.1
			c0.1-0.1,0.3-0.1,0.4-0.1c0.6,0,1.1,0.4,1.3,0.9l4.7,13.6c0.1,0.4,0.1,0.8-0.1,1.1c-0.2,0.3-0.5,0.6-0.8,0.7
			c-10.1,3.3-19.7,5.2-30.2,6h-0.1V202c0,11.3,6.3,17.8,17.4,17.8h10.3c0.8,0,1.4,0.6,1.4,1.4v14.6c0,0.8-0.6,1.4-1.4,1.4
			L1072.5,237.2L1072.5,237.2z"/>
		<path class="st5" d="M889.4,237.2c-0.8,0-1.4-0.6-1.4-1.4v-57.2c0-15.7-9.3-26.2-23-26.2c-15.3,0-26.4,12.5-26.4,29.8v53.6
			c0,0.8-0.6,1.4-1.4,1.4h-17.6c-0.8,0-1.4-0.6-1.4-1.4v-98.9c0-0.8,0.6-1.4,1.4-1.4h17.6c0.8,0,1.4,0.6,1.4,1.4v14.7
			c5.8-11.2,17.2-17.6,31.8-17.6c22.8,0,38,16.4,38,40.8v61c0,0.8-0.6,1.4-1.4,1.4L889.4,237.2L889.4,237.2z"/>
		<path class="st5" d="M781.1,237.2c-0.8,0-1.4-0.6-1.4-1.4v-10.7l-0.3,0.4c-5.4,7.7-17.2,12.4-31.4,12.4c-29,0-47.8-20.2-47.8-51.6
			s18.7-51.6,47.6-51.6c13.1,0,26,6.7,31.6,13l0.2,0.3V95.7c0-0.8,0.6-1.4,1.4-1.4h16.1c0.8,0,1.4,0.6,1.4,1.4v140.1
			c0,0.8-0.6,1.4-1.4,1.4L781.1,237.2L781.1,237.2z M750.4,151.1c-18.6,0-31.1,14.2-31.1,35.3s12.5,35.4,31.1,35.4
			s31.3-14.2,31.3-35.4S769.2,151,750.4,151.1"/>
		<path class="st5" d="M402.6,238.7c-30.5,0-62.4-20.1-62.4-65.1s32.2-65.1,63.1-65.1c25.1,0,43.8,14,51.4,38.4
			c0.1,0.5,0.1,1-0.2,1.5s-0.7,0.8-1.2,0.8l-14.6,2.4c-0.1,0-0.2,0-0.3,0c-0.7,0-1.4-0.4-1.6-1.1c-7.5-17.1-17.8-24.8-33.4-24.8
			c-26,0-43.8,18.8-43.8,47.9s18.2,48.4,43.6,48.4c20.2,0,35.9-12.1,36-30.2c0-2.2,0-0.9-0.1-1.7c-3.6,0.4-6.9,0.6-10,0.6
			c-6.7,0-12.2-0.9-18.8-2.4c-1-0.2-1.6-1.2-1.4-2.1l2.6-13.3c0.2-0.8,0.9-1.4,1.8-1.4c0.1,0,0.3,0,0.4,0c6,1.4,12.1,2.1,18.1,2.1
			c9.1,0,18.2-1.5,27.8-4.6c0.2-0.1,0.4-0.1,0.6-0.1c0.8,0,1.5,0.5,1.7,1.2l4,12.9c0.2,0.5,0.1,1-0.1,1.4c-0.2,0.4-0.7,0.8-1.1,0.9
			c-2.2,0.5-4.5,1-6.5,1.5l-1.6,0.4l1.3,48.2c0,0.5-0.2,0.9-0.5,1.3s-0.8,0.5-1.3,0.5H442c-1,0-1.8-0.8-1.8-1.8v-12.9
			C432.5,232.7,419.1,238.7,402.6,238.7"/>
		<path class="st5" d="M1139.2,238.7c-41.3-1.1-51.8-34.6-50.1-55.1c3.1-36.7,29.5-49.7,48.8-49.7c45.7,0,47.6,51.1,47.6,51.6
			c0,0.7-0.5,1.4-1.1,1.6c-21.3,7.6-38,9.8-52.4,9.8c-7.3,0-14.6-1.3-23.2-2.9c-0.2,0-0.4,0.1-0.4,0.4c2.6,16.7,17.3,28.2,31.3,28.1
			c16.2-0.1,24.1-6.8,27.4-17.2c0.2-0.6,0.7-1,1.3-1h16.7c0.4,0,0.8,0.2,1.1,0.5c0.3,0.3,0.4,0.8,0.3,1.2
			C1182.1,225.6,1164.1,239.3,1139.2,238.7 M1134.8,149.9c-17.1,1.6-24.8,17.7-26.4,26.3c0,0.2,0,0.4,0.1,0.5s0.2,0.2,0.4,0.3
			c22.3,5.9,42.8,2.4,56.8-1.2c0.2,0,0.3-0.1,0.4-0.3s0.1-0.3,0.1-0.4C1165.7,168.6,1157.7,147.8,1134.8,149.9"/>
		<path class="st5" d="M639.5,238.8c-30.2,0-52.2-22-52.2-52.4s21.9-52.4,52.2-52.4s52,22,52,52.4S669.6,238.8,639.5,238.8
			 M639.5,150.4c-19.5,0-33.1,14.8-33.1,36.1s13.6,36,33.1,36s32.9-14.8,32.9-36S658.8,150.4,639.5,150.4"/>
		<path class="st5" d="M526.2,238.8c-30.2,0-52.2-22-52.2-52.4s21.9-52.4,52.2-52.4c30.2,0,52,22,52,52.4S556.3,238.8,526.2,238.8
			 M526.2,150.4c-19.5,0-33.1,14.8-33.1,36.1s13.6,36,33.1,36c19.5,0,32.9-14.8,32.9-36S545.6,150.4,526.2,150.4"/>
	</g>
	<g>
		<path class="st5" d="M1260.7,108.5h12.6v2.8h-4.8v13h-3.1v-13h-4.8V108.5z M1275.9,108.5h3.6l4.6,11.4l4.6-11.4h3.6v15.9h-2.9
			v-10.2l-4.1,10.2h-2.5l-4.1-10.2v10.2h-2.9V108.5z"/>
	</g>
</g>
</svg>
